<?xml version="1.0" encoding="utf-8"?>
<!-- Generator: Adobe Illustrator 24.0.1, SVG Export Plug-In . SVG Version: 6.00 Build 0)  -->
<svg version="1.1" id="Layer_1" xmlns="http://www.w3.org/2000/svg" xmlns:xlink="http://www.w3.org/1999/xlink" x="0px" y="0px"
	 viewBox="0 0 2000 2000" style="enable-background:new 0 0 2000 2000;" xml:space="preserve">
<style type="text/css">
	.st0{fill:#FCEF01;}
	.st1{fill:#FF9700;}
	.st2{fill:#FF212B;}
	.st3{fill:#FFFFFF;}
	.st4{opacity:0.76;fill:#FFFFFF;}
</style>
<g>
	<path d="M-990.3,512.3c-118.9-118.9-277-184.4-445.2-184.4s-326.3,65.5-445.2,184.4c-118.9,118.9-184.4,277-184.4,445.2
		c0,168.2,65.5,326.3,184.4,445.2c118.9,118.9,277,184.4,445.2,184.4s326.3-65.5,445.2-184.4c118.9-118.9,184.4-277,184.4-445.2
		C-805.9,789.3-871.4,631.2-990.3,512.3z M-1435.5,1397c-242.4,0-439.5-197.2-439.5-439.5S-1677.8,518-1435.5,518
		s439.5,197.2,439.5,439.5S-1193.1,1397-1435.5,1397z"/>
	<circle cx="-1434.3" cy="927.1" r="504.2"/>
	<g>
		<path class="st0" d="M-962.3,648c-0.4,0-0.7,0-1.1,0c-4.1-0.4-7.8-2.6-9.9-6.1l-24.4-39.9c-3.7-6-1.9-13.8,4.1-17.6l135.3-86.5
			c2.1-1.4,4.6-2,7-2c3.7,0,7.3,1.6,9.8,4.5c4.2,4.9,4.2,12.1-0.1,16.9l-110.9,126.4C-955.1,646.4-958.6,648-962.3,648z"/>
		<path d="M-851.4,508.6L-962.3,635l-24.4-39.9L-851.4,508.6 M-851.4,482.8c-4.8,0-9.6,1.3-13.9,4.1l-135.3,86.5
			c-11.9,7.6-15.5,23.3-8.1,35.3l24.4,39.9c4.3,7,11.7,11.6,19.8,12.3c0.7,0.1,1.5,0.1,2.2,0.1c7.4,0,14.5-3.2,19.4-8.8L-832,525.7
			c8.5-9.7,8.6-24.1,0.2-33.9C-836.9,485.9-844.1,482.8-851.4,482.8L-851.4,482.8z"/>
	</g>
	<g>
		<path class="st1" d="M-1559,395.1c-5.7,0-10.7-3.7-12.4-9.1c-1.7-5.4,0.4-11.3,5.1-14.5l201.8-137.5c2.2-1.5,4.8-2.2,7.3-2.2
			c3.9,0,7.7,1.7,10.2,5c4.1,5.3,3.5,12.9-1.5,17.4l82.6-45.3c2-1.1,4.1-1.6,6.2-1.6c4.4,0,8.6,2.2,11,6.2
			c3.6,5.9,1.9,13.6-3.8,17.4l-160.9,108.6c-11.8,8-24.6,14.6-37.9,19.7l-92.2,35c-1.5,0.6-3,0.8-4.6,0.8H-1559z"/>
		<path d="M-1259.5,220.3l-160.9,108.6c-11,7.4-22.8,13.6-35.2,18.3l-92.2,35h-11.1l201.8-137.5l-88.7,77.6L-1259.5,220.3
			 M-1259.6,194.4c-4.2,0-8.5,1-12.4,3.2l-62.7,34.3c-0.6-1.1-1.3-2.1-2-3.1c-5.1-6.6-12.7-10-20.5-10c-5,0-10.1,1.5-14.5,4.5
			l-201.8,137.5c-9.4,6.4-13.5,18.1-10.1,29c3.3,10.8,13.4,18.2,24.7,18.2h11.1c3.1,0,6.3-0.6,9.2-1.7l92.2-35
			c14.3-5.4,27.9-12.5,40.5-21l160.9-108.6c11.4-7.7,14.8-23.1,7.6-34.9C-1242.3,198.8-1250.8,194.4-1259.6,194.4L-1259.6,194.4z"/>
	</g>
	<g>
		<path class="st1" d="M-1731.2,473.1c-4.7,0-9.2-2.6-11.5-7c-2.9-5.7-1.3-12.6,3.9-16.3l258.7-188.9c2.3-1.7,5-2.5,7.6-2.5
			c3.7,0,7.4,1.6,9.9,4.6c4.4,5.2,3.9,12.9-1,17.6L-1629.3,439c-1.4,1.3-3.1,2.3-4.9,2.9l-93,30.6
			C-1728.5,472.9-1729.8,473.1-1731.2,473.1z"/>
		<path d="M-1472.5,271.3l-165.7,158.3l-93,30.6L-1472.5,271.3 M-1472.5,245.4c-5.3,0-10.6,1.6-15.2,5l-258.7,188.9
			c-10.3,7.5-13.6,21.4-7.8,32.7c4.5,8.8,13.5,14.1,23,14.1c2.7,0,5.4-0.4,8.1-1.3l93-30.6c3.7-1.2,7-3.2,9.8-5.9l165.7-158.3
			c9.8-9.4,10.7-24.8,2-35.3C-1457.7,248.6-1465.1,245.4-1472.5,245.4L-1472.5,245.4z"/>
	</g>
	<g>
		<path class="st1" d="M-2268.7,1147c-3.6,0-7.2-1.5-9.8-4.4c-4.5-5.2-4.2-13.1,0.9-17.9l241.8-228.5c2.4-2.3,5.6-3.5,8.9-3.5
			c1.5,0,3,0.3,4.4,0.8c4.6,1.7,7.9,5.8,8.4,10.6l8.9,75.4c0.4,3.5-0.6,7-2.9,9.8l-53.2,64.3c-2.5,3.1-6.2,4.7-10,4.7
			c-2.3,0-4.7-0.6-6.8-1.9c-5.5-3.4-7.6-10.3-5-16.2l2.7-6.1l-7.1,5.8c-2.4,2-5.3,2.9-8.2,2.9c-3,0-6-1-8.4-3.1
			c-4.8-4.1-5.9-11-2.7-16.4l2.4-4l-156.1,124.9C-2263.1,1146.1-2265.9,1147-2268.7,1147z"/>
		<path d="M-2027,905.7l8.9,75.4l-53.2,64.3l24.4-55.5l-48.8,39.9l37.7-64.3l-210.7,168.6L-2027,905.7 M-2027,879.8
			c-6.5,0-12.9,2.5-17.8,7.1l-241.8,228.5c-10.1,9.5-10.8,25.3-1.7,35.8c5.1,5.9,12.3,8.9,19.5,8.9c5.7,0,11.4-1.9,16.1-5.7
			l136.2-108.9c1.1,1.5,2.4,2.9,3.9,4.1c4.8,4.1,10.8,6.2,16.8,6.2c0.2,0,0.5,0,0.7,0c2,4.7,5.5,8.8,10.1,11.7
			c4.2,2.6,8.9,3.9,13.6,3.9c7.5,0,14.9-3.2,19.9-9.4l53.2-64.3c4.5-5.4,6.6-12.5,5.8-19.5l-8.9-75.4c-1.1-9.7-7.7-17.9-16.9-21.3
			C-2021,880.3-2024,879.8-2027,879.8L-2027,879.8z"/>
	</g>
	<g>
		<path class="st1" d="M-2155.6,1293.4c-3.1,0-6.1-1.1-8.6-3.3c-5-4.5-5.8-12.1-1.7-17.5l98.8-129.6c13.3-31.2,34.1-80.7,36.4-87.4
			c1-4.1,4-7.5,8.1-9.1c1.5-0.5,3-0.8,4.5-0.8c3.7,0,7.3,1.6,9.8,4.5l42.1,48.8c4.5,5.2,4.1,13-0.8,17.8l-179.7,173
			C-2149.2,1292.2-2152.4,1293.4-2155.6,1293.4z"/>
		<path d="M-2018.1,1058.7l42.1,48.8l-179.7,173l99.8-130.9C-2055.8,1149.6-2018.1,1060.9-2018.1,1058.7 M-2018.1,1032.8
			c-3,0-6.1,0.5-9,1.6c-7.9,2.9-13.7,9.5-15.9,17.3c-2.7,7.2-19.5,47.6-35.3,84.7l-97.8,128.3c-8.2,10.7-6.7,26,3.4,35
			c4.9,4.4,11.1,6.6,17.2,6.6c6.5,0,12.9-2.4,17.9-7.2l179.7-173c9.9-9.5,10.6-25.1,1.6-35.5l-42.1-48.8
			C-2003.6,1036-2010.7,1032.8-2018.1,1032.8L-2018.1,1032.8z"/>
	</g>
	<g>
		<path class="st0" d="M-1188.6,457.2c-1.2,0-2.4-0.2-3.6-0.5c-3.7-1.1-6.8-3.8-8.3-7.3l-13.3-31.1c-2.4-5.6-0.6-12.2,4.4-15.7
			l142-99.8c2.3-1.6,4.8-2.4,7.4-2.4c3.6,0,7.1,1.5,9.6,4.3c1.3,1.4,2.2,3.1,2.7,4.8l197.5-142c2.3-1.6,4.9-2.4,7.5-2.4
			c3.8,0,7.5,1.6,10.1,4.8c4.3,5.3,3.7,13.1-1.4,17.7L-1100,429.5c-2.4,2.2-5.5,3.4-8.7,3.4c-1.8,0-3.5-0.4-5.2-1.1
			c-4.7-2.1-7.7-6.7-7.7-11.8v-6.3l-59.5,41.4C-1183.4,456.4-1186,457.2-1188.6,457.2z"/>
		<path d="M-842.5,178.1l-266.2,241.8v-31.1l-79.9,55.5l-13.3-31.1l142-99.8l-51,57.7L-842.5,178.1 M-842.6,152.3
			c-5.2,0-10.5,1.6-15.1,4.9l-187.7,134.9c-4.4-3-9.5-4.5-14.6-4.5c-5.2,0-10.4,1.5-14.9,4.7l-142,99.8c-10,7-13.7,20.1-8.9,31.3
			l13.3,31.1c3.1,7.1,9.2,12.5,16.6,14.7c2.3,0.7,4.7,1,7.1,1c5.2,0,10.4-1.6,14.7-4.6l44.1-30.6c2.6,3.7,6.2,6.7,10.6,8.6
			c3.4,1.5,6.9,2.2,10.5,2.2c6.3,0,12.5-2.3,17.4-6.7l266.2-241.8c10.1-9.2,11.3-24.7,2.7-35.4C-827.5,155.6-835,152.3-842.6,152.3
			L-842.6,152.3z"/>
	</g>
	<g>
		<path class="st0" d="M-1039.9,608.1c-3.6,0-7.2-1.5-9.8-4.5l-60.6-70.1c-2.4-2.8-3.5-6.4-3.1-10c0.5-3.6,2.4-6.9,5.4-9
			l391.1-273.7c2.2-1.6,4.8-2.3,7.4-2.3c3.6,0,7.1,1.5,9.7,4.3c4.4,4.9,4.4,12.3,0,17.2l-119.1,133.8l48.4-23.2
			c1.8-0.9,3.7-1.3,5.6-1.3c2.8,0,5.6,0.9,7.9,2.7c1.8,1.4,3.2,3.2,4,5.3l164.8-114.4c2.2-1.6,4.8-2.3,7.4-2.3
			c3.9,0,7.7,1.8,10.3,5.1c4.2,5.5,3.4,13.3-1.9,17.7L-785.4,463c-2.4,2-5.4,3-8.3,3c-2.2,0-4.5-0.6-6.5-1.8
			c-4.7-2.8-7.2-8.2-6.2-13.6l0.8-4.3l-226.9,159.2C-1034.8,607.3-1037.4,608.1-1039.9,608.1z"/>
		<path d="M-709.5,251.3l-161.9,181.9l106.5-51l-4.4,22.2l188.5-130.9l-212.9,179.7l6.7-35.5l-252.9,177.4l-60.6-70.1L-709.5,251.3
			 M-709.5,225.5c-5.1,0-10.3,1.5-14.8,4.7l-391.1,273.7c-6,4.2-9.9,10.7-10.8,18c-0.9,7.3,1.3,14.6,6.1,20.1l60.6,70.1
			c5.1,5.9,12.3,8.9,19.6,8.9c5.2,0,10.3-1.5,14.8-4.7l210.6-147.8c2,2.8,4.7,5.2,7.8,7c4,2.4,8.5,3.5,13,3.5c6,0,11.9-2.1,16.7-6.1
			l212.9-179.7c10.6-8.9,12.2-24.5,3.8-35.5c-5.1-6.6-12.8-10.1-20.5-10.1c-5.1,0-10.2,1.5-14.7,4.6l-155.6,108
			c-4.2-2.6-8.9-3.9-13.7-3.9c-1.2,0-2.4,0.1-3.6,0.3l78.4-88.1c8.7-9.8,8.7-24.6,0-34.4C-695.2,228.4-702.3,225.5-709.5,225.5
			L-709.5,225.5z"/>
	</g>
	<g>
		<path class="st0" d="M-871.3,956.3c-3.4,0-6.8-1.4-9.2-3.8c-3.5-3.5-4-7.2-5.1-16c-0.6-4.9-1.4-12.1-2.3-21.2
			c-1.6-15.2-3.6-36.3-6-62.6c-4.1-44.7-8-89.7-8-90.2c-0.3-4,1.2-7.9,4.1-10.6L-738,602.8c4.6-4.3,9.5-8.4,14.5-12.2l248-187.6
			c2.3-1.8,5.1-2.6,7.8-2.6c3.7,0,7.3,1.5,9.8,4.5c4.4,5.2,4.1,12.9-0.8,17.7l-286.7,277.6l83.2-43.3c1.9-1,3.9-1.5,6-1.5
			c4,0,7.8,1.8,10.4,5.2c3.8,5.1,3.4,12.1-1,16.7l-81.8,85.1c1.2-0.4,2.5-0.5,3.7-0.5c3.6,0,7.1,1.5,9.6,4.3c4.3,4.8,4.4,12,0.3,17
			c-0.4,0.4-36,42.7-71.7,84.4c-21,24.5-37.9,44.1-50.2,58.1c-7.4,8.4-13.2,14.9-17.3,19.4C-861.6,952.7-865,956.3-871.3,956.3z"/>
		<path d="M-467.7,413.2l-350.5,339.4l161.9-84.3l-164.1,170.8l95.4-64.3c0,0-142.3,168.6-146.3,168.6c0,0,0,0-0.1,0
			c-2.2-2.2-17.7-181.9-17.7-181.9l159.9-149.2c4.3-4,8.8-7.8,13.5-11.4L-467.7,413.2 M-467.7,387.4c-5.4,0-10.9,1.7-15.6,5.2
			l-248,187.6c-5.4,4.1-10.6,8.5-15.6,13.1l-159.9,149.2c-5.8,5.4-8.8,13.2-8.1,21.1c0,0.4,3.9,45.5,8.1,90.3
			c2.4,26.3,4.4,47.4,6,62.7c0.9,9.2,1.7,16.4,2.4,21.4c1.2,9.8,2.1,16.9,8.8,23.5c4.9,4.9,11.4,7.6,18.3,7.6
			c10.9,0,17.5-6.5,20.4-9.3c1.6-1.5,3.5-3.6,6-6.3c4.2-4.5,10.1-11.1,17.6-19.6C-815,920-798,900.5-777,875.9
			c35.7-41.7,71.4-84,71.8-84.4c8.3-9.9,8.1-24.3-0.5-33.9c-0.1-0.1-0.1-0.1-0.2-0.2l68.3-71.1c8.8-9.1,9.6-23.3,2.1-33.4
			c-5-6.7-12.8-10.4-20.7-10.4c-4,0-8.1,0.9-11.9,2.9l-4.5,2.4l223-215.9c9.8-9.5,10.5-25,1.6-35.4
			C-453.2,390.5-460.4,387.4-467.7,387.4L-467.7,387.4z"/>
	</g>
	<g>
		<path class="st1" d="M-884.7,1096.6c-1.8,0-3.6-0.4-5.4-1.2c-5.2-2.4-8.2-7.9-7.4-13.5l13.3-97.6c0.5-3.5,2.3-6.6,5.2-8.7
			l190.8-139.7c2.3-1.7,5-2.5,7.6-2.5c3.7,0,7.4,1.6,9.9,4.6c4.4,5.2,4,12.9-0.9,17.6l-112.1,107.6c1.7,0.8,3.3,2,4.6,3.6
			c3.9,4.9,3.7,11.9-0.4,16.6l-95.4,108.7C-877.5,1095-881,1096.6-884.7,1096.6z"/>
		<path d="M-680.6,846.3L-847,1006l57.7-31.1l-95.4,108.7l13.3-97.6L-680.6,846.3 M-680.6,820.5c-5.3,0-10.7,1.6-15.3,5
			l-190.8,139.7c-5.7,4.1-9.4,10.4-10.3,17.4l-13.3,97.6c-1.5,11.3,4.5,22.3,14.9,27c3.4,1.6,7.1,2.3,10.7,2.3
			c7.3,0,14.4-3.1,19.4-8.8l95.4-108.7c6.9-7.9,8.3-18.9,4-28l103.2-99c9.8-9.4,10.6-24.9,1.9-35.3
			C-665.9,823.6-673.2,820.5-680.6,820.5L-680.6,820.5z"/>
	</g>
	<g>
		<path class="st0" d="M-1745.3,1637.2c-3.4,0-6.8-1.4-9.4-4c-4.5-4.8-4.8-12.2-0.5-17.2l113.1-135.3c2.5-2.9,6.1-4.6,9.9-4.6
			c0.2,0,0.5,0,0.7,0c4.1,0.2,7.8,2.3,10.1,5.7l22.2,33.3c3.8,5.7,2.5,13.4-3,17.5l-135.3,102
			C-1739.8,1636.4-1742.6,1637.2-1745.3,1637.2z"/>
		<path d="M-1632.2,1489l22.2,33.3l-135.3,102L-1632.2,1489 M-1632.2,1463.1c-7.6,0-14.9,3.4-19.8,9.3l-113.1,135.3
			c-8.4,10.1-8,24.9,1.1,34.4c5.1,5.3,11.9,8,18.7,8c5.4,0,10.9-1.7,15.6-5.2l135.3-102c10.9-8.2,13.5-23.6,5.9-35l-22.2-33.3
			c-4.5-6.8-12-11-20.1-11.5C-1631.2,1463.2-1631.7,1463.1-1632.2,1463.1L-1632.2,1463.1z"/>
	</g>
	<g>
		<path class="st0" d="M-2215,1834.8c-5.6,0-10.5-3.6-12.3-8.9c-0.7-2-2.3-9,4.7-14.5c11.3-9.8,149.7-145.9,242.2-237.2
			c-59,28-139.7,68.1-168.4,90.2c-2.3,1.8-5.1,2.7-7.9,2.7c-3.5,0-6.9-1.4-9.5-4.1c-4.6-4.9-4.6-12.4-0.2-17.4l2.4-2.6
			c-71.4,40.3-178.2,101.7-207.1,124.5c-4.1,3.8-6.3,5.9-6.3,5.9c-2.5,2.4-5.7,3.5-8.9,3.5c-3,0-6-1-8.4-3.1c-5-4.3-6-11.8-2.2-17.2
			c1.8-2.5,4.5-5.2,8.8-8.7c81-76.6,346.9-326.1,397.7-350.5c1.8-0.9,3.7-1.3,5.6-1.3c4,0,7.9,1.8,10.4,5.2c3.7,5,3.3,11.9-0.9,16.4
			l-129.7,141.5l143.4-60.6l162.8-127.6c2.3-1.8,5.2-2.8,8-2.8c3.2,0,6.3,1.2,8.8,3.5l125.3,116.4c2.6,2.4,4.1,5.7,4.1,9.2
			c0.1,3.5-1.3,6.9-3.8,9.4c-8.4,8.4-90.7,72.9-116.7,93.3c-1.6,1.5-4.8,4-9.6,4c0,0,0,0,0,0c-3.4,0-6.7-1.4-9.1-3.8
			c-0.6-0.6-1-1.1-1.5-1.8c-27.5,22.8-56.3,46.4-70.3,57.8c-2.4,1.9-5.3,2.9-8.2,2.9c-3.1,0-6.3-1.1-8.7-3.4
			c-4.7-4.3-5.6-11.5-1.9-16.8c13.6-19.9,31.3-46,46.7-68.9c-110.7,77.8-356.4,250.9-370.8,261.4c-0.7,0.6-1.6,1.2-2.7,1.8
			C-2211,1834.3-2213,1834.8-2215,1834.8z"/>
		<path d="M-1790.8,1381.4l125.3,116.4c-8.4,8.4-105,84-116.2,92.7c6.6-6.8,41.3-52.8,44.3-56.7c0.1-0.1,0.2-0.2,0.2-0.3
			c0,0-0.1,0.1-0.2,0.3c-7.3,8.9-134.4,112.7-134.4,112.7s85-124.2,82.2-124.2c0,0-0.1,0-0.1,0c-1.7,0.9-407.6,286.6-424.8,299.2
			c14.7-12.5,296.2-290.3,296.2-290.3s-189.6,85.4-238.4,123.1l53.2-59.9c0,0-231.5,127.8-276.1,163.4
			c48.4-45.7,343.9-324.1,394.8-348.6l-169.7,185.2l199.6-84.3L-1790.8,1381.4 M-1781.6,1590.6c-0.5,0.5-0.9,0.8-1,0.8c0,0,0,0,0,0
			C-1782.7,1591.4-1782.3,1591.1-1781.6,1590.6 M-2379.6,1757.7c-4.3,4.1-6.7,6.3-6.7,6.3
			C-2385.2,1762.5-2382.9,1760.4-2379.6,1757.7 M-2214.5,1821.4c-0.3,0.2-0.5,0.4-0.5,0.4c0,0,0,0,0,0
			C-2215,1821.9-2214.9,1821.7-2214.5,1821.4 M-1790.8,1355.6c-5.6,0-11.2,1.8-15.9,5.5l-161.4,126.5l-87.3,36.8l89.6-97.8
			c8.4-9.1,9.1-22.9,1.7-32.9c-5-6.8-12.8-10.5-20.8-10.5c-3.8,0-7.6,0.8-11.2,2.5c-15.3,7.4-53.2,33-204.5,170.5
			c-85.5,77.6-170.8,158-196.1,181.9c-5.1,4.1-8.4,7.5-10.9,11c-7.6,10.9-5.8,25.7,4.3,34.4c4.9,4.2,10.9,6.3,16.9,6.3
			c6.4,0,12.8-2.4,17.8-7.1c0,0,2-1.9,5.8-5.5c24.9-19.4,110.5-69.4,183.2-110.7c1,1.9,2.3,3.7,3.8,5.3c5.1,5.4,12,8.2,18.9,8.2
			c5.5,0,11.1-1.8,15.8-5.4c16.8-13,54.1-33.3,94.9-54c-89.1,87.7-175.3,172.3-184.9,180.8c-10.5,8.5-11.3,20.5-8.7,28.4
			c3.5,10.6,13.4,17.8,24.6,17.8c3.9,0,7.8-0.9,11.3-2.6c0.1,0,0.2-0.1,0.2-0.1c2-1,3.6-2.1,4.8-3.1
			c14.3-10.4,192.2-135.7,312.8-220.6c-2.4,3.5-4.8,7-7.2,10.5c-7.3,10.6-5.6,24.9,3.8,33.6c4.9,4.5,11.2,6.8,17.5,6.8
			c5.8,0,11.6-1.9,16.3-5.8c0.3-0.3,30.9-25.2,62.5-51.4c3.2,1.4,6.7,2.1,10.2,2.1c6.7,0,12.7-2.4,17.9-7.1
			c40.8-31.9,109.2-85.6,117.6-94c5-5,7.7-11.7,7.6-18.8c-0.1-7-3.1-13.7-8.3-18.5l-125.3-116.4
			C-1778.1,1357.9-1784.4,1355.6-1790.8,1355.6L-1790.8,1355.6z"/>
	</g>
	<g>
		<path class="st1" d="M-1591.2,1637c-4.4,0-8.7-2.3-11.1-6.3c-3.5-5.9-1.8-13.5,3.8-17.4c7.9-5.3,193.2-130.9,231.1-150.8
			c13.4-7.1,24.7-10.5,34.4-10.5c17.5,0,25.2,11.1,27.1,17.7c1.4,4.9-0.2,10.1-4.1,13.3c-10.7,9.1-96.5,75-112.9,84.1
			c-2,1.1-4.1,1.6-6.2,1.6c-3.4,0-6.7-1.3-9.2-3.8c-1.5-1.5-2.6-3.3-3.2-5.2l-143.8,75.8C-1587.1,1636.5-1589.1,1637-1591.2,1637z"
			/>
		<path d="M-1332.9,1465c12.3,0,14.6,8.3,14.6,8.3c-10.8,9.2-95.6,74.2-110.7,82.6l13.7-24.5l-175.9,92.7
			c0,0,192.2-130.2,229.8-150.1C-1348.4,1467.2-1339.3,1465-1332.9,1465 M-1332.9,1439.1
			C-1332.9,1439.1-1332.9,1439.1-1332.9,1439.1c-11.9,0-25.1,3.9-40.5,12c-38.5,20.3-224.4,146.2-232.3,151.6
			c-11.4,7.7-14.7,22.9-7.7,34.7c4.8,8,13.4,12.6,22.2,12.6c4.1,0,8.2-1,12-3l134.2-70.7c4.6,3.6,10.2,5.5,15.9,5.5
			c4.3,0,8.6-1.1,12.5-3.2c18.4-10.2,104.8-76.9,115-85.6c7.7-6.5,10.8-17,8.1-26.7C-1297.2,1452.7-1310.9,1439.1-1332.9,1439.1
			L-1332.9,1439.1L-1332.9,1439.1z"/>
	</g>
	<g>
		<path class="st1" d="M-1379,1605.8c-3.6,0-7.2-1.5-9.7-4.4c-4.5-5.2-4.2-13,0.8-17.8c4.4-4.4,168.7-170.7,255.4-258.5l137.4-157.8
			c2.5-2.8,6-4.4,9.7-4.4c0.1,0,0.2,0,0.4,0l22.9,0.7l125.4-74.3c2.1-1.2,4.3-1.8,6.6-1.8c4.2,0,8.2,2,10.7,5.7
			c3.8,5.7,2.6,13.4-2.9,17.5c-1.9,1.4-189.1,145-245.6,246.3c-0.8,1.4-1.9,2.7-3.2,3.8l-299.8,242.2
			C-1373.3,1604.9-1376.2,1605.8-1379,1605.8z"/>
		<path d="M-830.2,1100.4c0,0-190.5,145.5-249,250.3l-299.8,242.2c2.3-2.2,255.9-259,255.9-259l137.6-158.1l26.6,0.8L-830.2,1100.4
			 M-830.2,1074.6c-4.5,0-9,1.2-13.2,3.6l-122.2,72.4l-19.1-0.5c-0.2,0-0.5,0-0.7,0c-7.5,0-14.6,3.2-19.5,8.9l-137.1,157.4
			c-86.2,87.3-249.2,252.3-255,258c-9.8,9.6-10.5,25.2-1.4,35.6c5.1,5.8,12.3,8.8,19.5,8.8c5.7,0,11.5-1.9,16.2-5.7l299.8-242.2
			c2.6-2.1,4.7-4.6,6.3-7.5c55.2-99,240.3-240.9,242.1-242.3c10.9-8.3,13.4-23.7,5.7-35C-813.7,1078.6-821.9,1074.6-830.2,1074.6
			L-830.2,1074.6z"/>
	</g>
	<g>
		<path class="st2" d="M-1440.9,1542c-156.1,0-302.9-60.8-413.3-171.2s-171.2-257.2-171.2-413.3c0-156.1,60.8-302.9,171.2-413.3
			C-1743.8,433.8-1597,373-1440.9,373c156.1,0,302.9,60.8,413.3,171.2s171.2,257.2,171.2,413.3c0,156.1-60.8,302.9-171.2,413.3
			C-1138,1481.2-1284.8,1542-1440.9,1542z M-1440.9,472.9c-267.2,0-484.6,217.4-484.6,484.6c0,267.2,217.4,484.6,484.6,484.6
			c267.2,0,484.6-217.4,484.6-484.6C-956.3,690.3-1173.7,472.9-1440.9,472.9z"/>
		<path class="st3" d="M-1440.9,384.1c153.2,0,297.1,59.6,405.4,167.9c108.3,108.3,167.9,252.3,167.9,405.4
			c0,153.2-59.6,297.1-167.9,405.4s-252.3,167.9-405.4,167.9c-153.2,0-297.1-59.6-405.4-167.9c-108.3-108.3-167.9-252.3-167.9-405.4
			c0-153.2,59.6-297.1,167.9-405.4C-1738,443.8-1594.1,384.1-1440.9,384.1 M-1440.9,1453.2c273.4,0,495.7-222.4,495.7-495.7
			s-222.4-495.7-495.7-495.7s-495.7,222.4-495.7,495.7S-1714.3,1453.2-1440.9,1453.2 M-1440.9,362c-159.1,0-308.6,61.9-421.1,174.4
			c-112.5,112.5-174.4,262-174.4,421.1s61.9,308.6,174.4,421.1c112.5,112.5,262,174.4,421.1,174.4s308.6-61.9,421.1-174.4
			c112.5-112.5,174.4-262,174.4-421.1s-61.9-308.6-174.4-421.1C-1132.3,423.9-1281.8,362-1440.9,362L-1440.9,362z M-1440.9,1431.1
			c-261.1,0-473.6-212.4-473.6-473.6c0-261.1,212.4-473.6,473.6-473.6c261.1,0,473.6,212.4,473.6,473.6
			C-967.4,1218.6-1179.8,1431.1-1440.9,1431.1L-1440.9,1431.1z"/>
	</g>
	<g>
		<path class="st3" d="M-1440.3,1277.2c-176.1,0-319.4-143.3-319.4-319.4c0-176.1,143.3-319.4,319.4-319.4s319.4,143.3,319.4,319.4
			C-1120.9,1133.9-1264.2,1277.2-1440.3,1277.2z M-1440.3,682.7c-151.7,0-275,123.4-275,275s123.4,275,275,275s275-123.4,275-275
			S-1288.7,682.7-1440.3,682.7z"/>
	</g>
	<polygon points="-1523.5,1214 -1967.1,1591 -2186.7,1768.5 -1618.9,1087.5 	"/>
	<polygon class="st0" points="-1147.5,744.8 -1398.2,962.2 -1270.6,965.5 -1984.8,1571.1 -1842.7,1398.8 -1554.5,1049.8 
		-1685.4,1083.1 -1414.8,799.2 -1612.2,850.2 -1103.3,526.8 -924.6,413.2 -1296.1,787 	"/>
	<polygon class="st4" points="-1147.5,744.8 -1398.2,962.2 -1270.6,965.5 -1984.8,1571.1 -1842.7,1398.8 -1554.5,1049.8 
		-1685.4,1083.1 -1414.8,799.2 -1612.2,850.2 -1103.3,526.8 -924.6,413.2 -1296.1,787 	"/>
	<polygon class="st0" points="-1239.2,770.9 -1489.9,988.3 -1362.3,991.6 -1842.7,1398.8 -1554.5,1049.8 -1685.4,1083.1 
		-1414.8,799.2 -1612.2,850.2 -1103.3,526.8 -1387.8,813.1 	"/>
	<path d="M-924.6,413.2L-1296.1,787l148.6-42.1l-250.6,217.4l127.5,3.3l-714.2,605.5l430.3-521.2l-130.9,33.3l270.6-283.9l-197.4,51
		L-924.6,413.2 M-737.6,262.9l-201.3,127.9l-687.6,437l-76.7,62.4l97.6-14.2l107.2-27.7l-206.3,216.5l-63.8,66.9l89.6-22.8
		l51.9-13.2l-378.5,458.4l37.7,37.2l714.2-605.5l53.2-45.1l-69.7-1.8l-59-1.5l198.8-172.4l90.3-78.3l-115,32.6l-50.8,14.4
		L-905.7,432L-737.6,262.9L-737.6,262.9z"/>
</g>
<g>
	<circle cx="992.7" cy="927.1" r="504.2"/>
	<g>
		<polygon class="st0" points="1440.3,595.1 1575.6,508.6 1464.7,635 		"/>
	</g>
	<g>
		<path class="st1" d="M868,382.2l201.8-137.5l-88.7,77.6l186.3-102l-160.9,108.6c-11,7.4-22.8,13.6-35.2,18.3l-92.2,35H868z"/>
	</g>
	<g>
		<polygon class="st1" points="695.8,460.2 954.5,271.3 788.8,429.6 		"/>
	</g>
	<g>
		<polygon class="st1" points="400,905.7 158.2,1134.1 369,965.5 331.3,1029.9 380.1,989.9 355.7,1045.4 408.9,981.1 		"/>
	</g>
	<g>
		<path class="st1" d="M408.9,1058.7c0,2.2-37.7,90.9-37.7,90.9l-99.8,130.9l179.7-173L408.9,1058.7z"/>
	</g>
	<g>
		<polygon class="st0" points="1225.1,413.2 1367.1,313.4 1316.1,371.1 1584.5,178.1 1318.3,419.9 1318.3,388.8 1238.4,444.3 		"/>
	</g>
	<g>
		<polygon class="st0" points="1326.5,525 1717.5,251.3 1555.6,433.2 1662.1,382.2 1657.7,404.4 1846.2,273.5 1633.3,453.2 
			1639.9,417.7 1387.1,595.1 		"/>
	</g>
	<g>
		<path class="st0" d="M1537.9,761.5l159.9-149.2c4.3-4,8.8-7.8,13.5-11.4l248-187.6l-350.5,339.4l161.9-84.3l-164.1,170.8
			l95.4-64.3c0,0-144.2,170.8-146.4,168.6C1553.4,941.1,1537.9,761.5,1537.9,761.5z"/>
	</g>
	<g>
		<polygon class="st1" points="1555.6,986 1746.4,846.3 1580,1006 1637.7,975 1542.3,1083.6 		"/>
	</g>
	<g>
		<polygon class="st0" points="817,1522.3 681.7,1624.3 794.8,1489 		"/>
	</g>
	<g>
		<path class="st0" d="M761.6,1497.9c-8.9,8.9-117.2,93.5-117.2,93.5c1.1,1.1,45.6-57.8,45.6-57.8c-4.4,6.7-134.6,112.9-134.6,112.9
			s86.5-126.4,82.1-124.2c-1.8,0.9-428,300.9-425.4,299.6c4.4-2.2,296.7-290.7,296.7-290.7s-189.6,85.4-238.4,123.1l53.2-59.9
			c0,0-267.3,147.5-282.8,169.7c0,0,346-328.3,401.5-354.9l-169.7,185.2l199.6-84.3l164.1-128.6L761.6,1497.9z"/>
	</g>
	<g>
		<path class="st1" d="M1108.7,1473.2c-10.8,9.2-95.6,74.2-110.7,82.6l13.7-24.5l-175.9,92.7c0,0,192.2-130.2,229.8-150.1
			C1103.4,1454.1,1108.7,1473.2,1108.7,1473.2z"/>
	</g>
	<g>
		<path class="st1" d="M1048,1592.9c2.3-2.2,255.9-259,255.9-259l137.6-158.1l26.6,0.8l128.7-76.2c0,0-190.5,145.5-249,250.3
			L1048,1592.9z"/>
	</g>
	<g>
		<path class="st2" d="M986.1,1542c-156.1,0-302.9-60.8-413.3-171.2c-110.4-110.4-171.2-257.2-171.2-413.3s60.8-302.9,171.2-413.3
			C683.2,433.8,830,373,986.1,373c156.1,0,302.9,60.8,413.3,171.2s171.2,257.2,171.2,413.3c0,156.1-60.8,302.9-171.2,413.3
			S1142.2,1542,986.1,1542z M986.1,472.9c-267.2,0-484.6,217.4-484.6,484.6c0,267.2,217.4,484.6,484.6,484.6
			s484.6-217.4,484.6-484.6C1470.7,690.3,1253.3,472.9,986.1,472.9z"/>
		<path class="st3" d="M986.1,384.1c153.2,0,297.1,59.6,405.4,167.9c108.3,108.3,167.9,252.3,167.9,405.4
			c0,153.2-59.6,297.1-167.9,405.4c-108.3,108.3-252.3,167.9-405.4,167.9c-153.2,0-297.1-59.6-405.4-167.9
			c-108.3-108.3-167.9-252.3-167.9-405.4c0-153.2,59.6-297.1,167.9-405.4C689,443.8,832.9,384.1,986.1,384.1 M986.1,1453.2
			c273.4,0,495.7-222.4,495.7-495.7s-222.4-495.7-495.7-495.7S490.4,684.2,490.4,957.5S712.7,1453.2,986.1,1453.2 M986.1,362
			C827,362,677.5,423.9,565,536.4c-112.5,112.5-174.4,262-174.4,421.1s61.9,308.6,174.4,421.1c112.5,112.5,262,174.4,421.1,174.4
			c159.1,0,308.6-61.9,421.1-174.4s174.4-262,174.4-421.1s-61.9-308.6-174.4-421.1C1294.7,423.9,1145.2,362,986.1,362L986.1,362z
			 M986.1,1431.1c-261.1,0-473.6-212.4-473.6-473.6c0-261.1,212.4-473.6,473.6-473.6c261.1,0,473.6,212.4,473.6,473.6
			C1459.6,1218.6,1247.2,1431.1,986.1,1431.1L986.1,1431.1z"/>
	</g>
	<g>
		<path class="st3" d="M986.7,1277.2c-176.1,0-319.4-143.3-319.4-319.4c0-176.1,143.3-319.4,319.4-319.4s319.4,143.3,319.4,319.4
			C1306.1,1133.9,1162.8,1277.2,986.7,1277.2z M986.7,682.7c-151.7,0-275,123.4-275,275s123.4,275,275,275s275-123.4,275-275
			S1138.3,682.7,986.7,682.7z"/>
	</g>
	<polygon points="903.5,1214 459.9,1591 240.3,1768.5 808.1,1087.5 	"/>
	<polygon class="st0" points="1279.5,744.8 1028.8,962.2 1156.4,965.5 442.2,1571.1 584.3,1398.8 872.5,1049.8 741.6,1083.1 
		1012.2,799.2 814.8,850.2 1323.7,526.8 1502.4,413.2 1130.9,787 	"/>
	<polygon class="st4" points="1279.5,744.8 1028.8,962.2 1156.4,965.5 442.2,1571.1 584.3,1398.8 872.5,1049.8 741.6,1083.1 
		1012.2,799.2 814.8,850.2 1323.7,526.8 1502.4,413.2 1130.9,787 	"/>
	<polygon class="st0" points="1187.8,770.9 937.1,988.3 1064.7,991.6 584.3,1398.8 872.5,1049.8 741.6,1083.1 1012.2,799.2 
		814.8,850.2 1323.7,526.8 1039.2,813.1 	"/>
	<path d="M1502.4,413.2L1130.9,787l148.6-42.1l-250.6,217.4l127.5,3.3l-714.2,605.5l430.3-521.2l-130.9,33.3l270.6-283.9l-197.4,51
		L1502.4,413.2 M1689.4,262.9l-201.3,127.9l-687.6,437l-76.7,62.4l97.6-14.2l107.2-27.7l-206.3,216.5l-63.8,66.9l89.6-22.8
		l51.9-13.2l-378.5,458.4l37.7,37.2l714.2-605.5l53.2-45.1l-69.7-1.8l-59-1.5L1296.9,765l90.3-78.3l-115,32.6l-50.8,14.4L1521.3,432
		L1689.4,262.9L1689.4,262.9z"/>
</g>
</svg>
