<?xml version="1.0" encoding="utf-8"?>
<!-- Generator: Adobe Illustrator 24.0.1, SVG Export Plug-In . SVG Version: 6.00 Build 0)  -->
<svg version="1.1" id="Layer_1" xmlns="http://www.w3.org/2000/svg" xmlns:xlink="http://www.w3.org/1999/xlink" x="0px" y="0px"
	 viewBox="0 0 2000 1126" style="enable-background:new 0 0 2000 1126;" xml:space="preserve">
<style type="text/css">
	.st0{fill:#FCEF01;}
	.st1{fill:#C7C7C8;}
	.st2{fill:#FFFFFF;}
	.st3{fill:url(#SVGID_1_);}
	.st4{fill:url(#SVGID_2_);}
	.st5{opacity:0.76;fill:#FFFFFF;}
	.st6{fill:#FFF9BD;}
</style>
<rect x="-127" y="-55" width="2411" height="1321"/>
<g>
	<path d="M1864,579.7c-2.2-2.7-4.9-5-7.8-6.8c0.2-7.2-2.1-14.4-6.8-20.1c-5.7-7-14.3-11.1-23.4-11.1h-260.5c-0.5,0-1,0-1.4,0.1
		l41-206h69.1c14.4,0,26.7-10.1,29.6-24.2l16.9-83.8c1.8-8.9-0.5-18.1-6.2-25.1c-2.2-2.7-4.9-5-7.8-6.8c0.2-7.2-2.1-14.4-6.8-20.1
		c-5.7-7-14.3-11.1-23.4-11.1h-287.2l12.4-16.4c9.2-12.2,7.8-29.3-3.2-39.9c-5.8-5.6-13.4-8.5-21-8.5c-6.7,0-13.5,2.2-19,6.8
		l-81.4,66.2c-19.2-5.4-40.9-8.2-65-8.2h-143.8c-11,0-20.8,5.9-26.1,15c-0.8-1.4-1.7-2.7-2.8-4c-5.7-7-14.3-11-23.3-11H908.2
		c-14.4,0-26.8,10.2-29.6,24.3l-17,85c-1-1.8-2.1-3.5-3.2-5.2c-0.9-1.3-1.7-2.6-2.6-3.8c-3.4-8.2-7.5-15.9-12-23
		c-16.3-25.2-39.6-44.7-69.3-58.1c-28.2-12.7-61.8-19.1-99.8-19.1H530c-14.4,0-26.8,10.2-29.6,24.3l-64.1,320.5
		c-1.8,8.9,0.5,18.1,6.3,25.1c2.2,2.7,4.9,5,7.8,6.7c0,0.1,0,0.3,0,0.4H223.4c-14.4,0-26.8,10.2-29.6,24.3l-64.1,320.5
		c-1.8,8.9,0.5,18.1,6.3,25.1c2.2,2.7,4.9,5,7.8,6.7c-0.2,7.3,2.2,14.4,6.8,20.1c5.7,7,14.3,11,23.3,11h103.5l-21.4,28
		c-9.6,12.5-7.9,30.4,3.9,40.9c5.7,5.1,12.9,7.6,20.1,7.6c7.6,0,15.2-2.8,21-8.5l70.2-68h69.3c14.4,0,26.7-10.1,29.6-24.2l14-69.3
		c0.7,0.1,1.5,0.1,2.2,0.1h103.4l-0.3,12.6c-0.3,12.1,6.8,23.2,17.7,28.1c0.8,5.3,3,10.4,6.5,14.7c2.2,2.7,4.9,5,7.8,6.7
		c-0.2,7.3,2.2,14.4,6.8,20.1c5.7,7,14.3,11,23.3,11h185c30.4,0,58.8-4.1,84.2-12.2c18.2-5.8,34.3-13.9,48.1-24.3
		c1.9,2.1,4.1,3.9,6.5,5.3c-0.2,7.3,2.2,14.4,6.8,20.1c5.7,7,14.3,11,23.3,11h108.1c11,0,20.8-6,26.1-15.1c0.8,1.4,1.7,2.7,2.8,4
		c5.7,7,14.3,11,23.3,11H1272c14.4,0,26.8-10.2,29.6-24.3l11.9-59.5l43.2,69.5c5.5,8.9,15.2,14.3,25.6,14.3h120.4
		c2.2,0,4.4-0.3,6.5-0.8c2.2,0.5,4.5,0.8,6.8,0.8h266.5c14.4,0,26.7-10.1,29.6-24.2l16.5-81.5c1.8-8.9-0.5-18.1-6.2-25.1
		c-2.2-2.7-4.9-5-7.8-6.8c0.1-4.1-0.6-8.2-2.1-12.1l15.2-76.1c0.9-4.5,0.8-9.1-0.4-13.4c13-1.3,23.8-11,26.5-24l16.5-81.5
		C1872,595.9,1869.8,586.7,1864,579.7z"/>
	<path class="st0" d="M1377.6,129.4C1377.6,129.4,1377.6,129.4,1377.6,129.4l-68.7,91.1l-9.8,12.9L1240,312l-4.4,5.9l-23.1,30.6
		c-6.6,2.8-14.5,4.2-23.6,4.2h-44.3l8-40.2l42.9-34.9l66.5-54.1l21.3-17.3L1377.6,129.4z"/>
	<path class="st1" d="M732.8,528.7c24.4-8.5,45.6-20.9,63.4-37.1c17.9-16.2,31.7-35.6,41.7-58.2c9.9-22.6,14.9-48.1,14.9-76.5
		c0-28.1-6.6-52.3-19.7-72.6c-13.1-20.3-31.9-35.9-56.3-46.9c-24.4-11-53.6-16.5-87.5-16.5H544.6l-64.1,320.5h171.7
		C681.5,541.6,708.4,537.3,732.8,528.7z M635.7,305.3h41.2c14.7,0,26.9,2.3,36.9,6.9c9.9,4.6,17.4,11.1,22.4,19.7
		c5,8.5,7.6,19.1,7.6,31.6c0,17.4-3.4,33.2-10.1,47.4c-6.7,14.2-16.6,25.5-29.5,33.9c-13,8.4-29.1,12.6-48.3,12.6h-50.4L635.7,305.3
		z"/>
	<polygon class="st1" points="1030.9,221 1030.4,223.2 966.8,541.5 858.7,541.5 864.1,514.7 952.2,514.7 1004.2,254.4 1010.9,221 	
		"/>
	<polygon class="st1" points="1425.1,541.6 1533.2,541.6 1580.3,304.8 1674.2,304.8 1691.2,221 1395.4,221 1378.4,304.8 
		1472.3,304.8 	"/>
	<path class="st1" d="M856.5,771.1c-5.3-3.5-11.5-5.3-18.6-5.3h-69.6l-10.1,50.4h20l4.7-23.5h69.6c4,0,7.7,0.6,11.1,1.7
		c0.5-2.3,0.8-4.8,0.8-7.5C864.5,779.8,861.8,774.6,856.5,771.1z M969.5,771.5c1.4,5.6,2.1,11.7,2.1,18.1c0,23.5-6.8,42.8-20.4,57.9
		c-13.6,15.1-31.7,26.3-54.3,33.4c-22.6,7.2-47.6,10.7-75.1,10.7h-165l-5.4,26.9h185c27.5,0,52.5-3.6,75.1-10.8
		c22.6-7.2,40.7-18.3,54.2-33.4c13.6-15.1,20.4-34.4,20.4-57.9C986.3,798.3,980.7,783.3,969.5,771.5z M856.5,771.1
		c-5.3-3.5-11.5-5.3-18.6-5.3h-69.6l-10.1,50.4h20l4.7-23.5h69.6c4,0,7.7,0.6,11.1,1.7c0.5-2.3,0.8-4.8,0.8-7.5
		C864.5,779.8,861.8,774.6,856.5,771.1z M983.4,628.1c1.6,6.1,2.4,12.6,2.4,19.5c0,19.9-5.7,36.6-17.1,50.4
		c-10.1,12.1-23.4,21.6-40.1,28.6c5.4,2.4,10.4,5.1,14.9,8.2c5.2,3.6,9.6,7.5,13.3,11.9c10.5-6,19.3-13.3,26.5-21.9
		c11.4-13.7,17.2-30.5,17.2-50.3C1000.4,655.8,994.8,640.3,983.4,628.1z M856.5,771.1c-5.3-3.5-11.5-5.3-18.6-5.3h-69.6l-10.1,50.4
		h20l4.7-23.5h69.6c4,0,7.7,0.6,11.1,1.7c0.5-2.3,0.8-4.8,0.8-7.5C864.5,779.8,861.8,774.6,856.5,771.1z M856.5,771.1
		c-5.3-3.5-11.5-5.3-18.6-5.3h-69.6l-10.1,50.4h20l4.7-23.5h69.6c4,0,7.7,0.6,11.1,1.7c0.5-2.3,0.8-4.8,0.8-7.5
		C864.5,779.8,861.8,774.6,856.5,771.1z"/>
	<polygon class="st1" points="1069.6,598 1005.5,918.5 1113.5,918.5 1177.6,598 	"/>
	<polygon class="st1" points="1559.1,598 1435,598 1313.4,711.4 1336.1,598 1229.8,598 1165.7,918.5 1272,918.5 1287.2,842.3 
		1317.5,814.2 1382.3,918.5 1502.7,918.5 1398.4,743.9 	"/>
	<polygon class="st1" points="1824.2,679.5 1840.7,598 1580.1,598 1516,918.5 1782.5,918.5 1799,837 1638.3,837 1646.7,794.9 
		1782.5,794.9 1798.1,717.1 1662.3,717.1 1669.9,679.5 	"/>
	<path class="st2" d="M465.9,514.7L530,194.2h144.7c33.9,0,63,5.5,87.5,16.5c24.4,11,43.2,26.6,56.3,46.9
		c13.1,20.3,19.7,44.5,19.7,72.6c0,28.4-5,53.9-14.9,76.5c-9.9,22.6-23.8,42-41.7,58.2c-17.9,16.2-39,28.5-63.4,37.1
		c-24.4,8.6-51.3,12.8-80.6,12.8H465.9z M590.9,430.5h50.4c19.2,0,35.3-4.2,48.3-12.6c13-8.4,22.8-19.7,29.5-33.9
		c6.7-14.2,10.1-30,10.1-47.4c0-12.5-2.5-23-7.6-31.6c-5-8.5-12.5-15.1-22.4-19.7c-9.9-4.6-22.2-6.9-36.9-6.9h-41.2L590.9,430.5z"/>
	<polygon class="st2" points="1016.3,194.2 1010.9,221 1004.2,254.4 952.2,514.7 844.1,514.7 862.4,423.1 908.2,194.2 	"/>
	<path class="st2" d="M1410.5,514.7l47.2-236.7h-93.9l16.9-83.8h295.8l-16.9,83.8h-93.9l-47.2,236.7H1410.5z"/>
	<path class="st2" d="M871.1,797.9c-2.3-1.5-4.8-2.7-7.4-3.5c-1.4,6.1-4.5,10.9-9.5,14.5c-6.9,4.9-15.7,7.3-26.3,7.3h-49.6
		l-5.4,26.8h69.6c10.7,0,19.5-2.4,26.3-7.3c6.9-4.9,10.3-12.2,10.3-22C879.1,806.7,876.4,801.4,871.1,797.9z M880.3,678.4
		c-2.3-1.5-5-2.6-8.1-3.4c-0.6,2.3-1.4,4.4-2.6,6.3c-2.4,4.1-6.3,7.3-11.7,9.6c-5.3,2.3-12.1,3.4-20.4,3.4h-34.9l-5.4,26.8h54.9
		c8.2,0,15-1.1,20.4-3.4c5.3-2.3,9.2-5.5,11.7-9.6c2.4-4.1,3.7-9.1,3.7-14.9C887.8,686.5,885.3,681.6,880.3,678.4z M956.8,746.8
		c-4.3,2.4-8.8,4.6-13.6,6.7c5.4,2.4,10.3,5.1,14.9,8.3c4.3,3,8.1,6.2,11.4,9.7C967.2,762.2,963,753.9,956.8,746.8z M648.3,834.7
		l-11.4,57h20l17.6-87.8L648.3,834.7z"/>
	<path class="st2" d="M983.4,628.1c-3.4-3.7-7.4-7.1-11.8-10.2c-19.2-13.3-47.9-19.9-86.1-19.9H715.6l-41.2,205.8l-26.2,30.8
		L701,571.2h169.9c0.4,0,0.8,0,1.2,0c37.5,0.1,65.8,6.8,84.9,19.9C970.7,600.6,979.6,612.9,983.4,628.1z"/>
	<path class="st2" d="M958.1,761.7c-4.6-3.1-9.5-5.9-14.9-8.3c4.8-2,9.3-4.3,13.6-6.7c-3.7-4.4-8.2-8.4-13.3-11.9
		c-4.5-3.1-9.5-5.9-14.9-8.2c16.7-7,30-16.5,40.1-28.6c11.4-13.7,17.1-30.5,17.1-50.4c0-6.9-0.8-13.5-2.4-19.5
		c-3.4-3.7-7.4-7.1-11.8-10.2c-19.2-13.3-47.9-19.9-86.1-19.9H715.6l-41.2,205.8l-17.6,87.8h165c27.5,0,52.5-3.6,75.1-10.7
		c22.6-7.2,40.7-18.3,54.3-33.4c13.6-15.1,20.4-34.4,20.4-57.9c0-6.4-0.7-12.5-2.1-18.1C966.2,767.9,962.4,764.7,958.1,761.7z
		 M868.8,835.7c-6.9,4.9-15.6,7.3-26.3,7.3h-69.6l5.4-26.8h-20l10.1-50.4h69.6c7,0,13.2,1.8,18.6,5.3c5.3,3.5,8,8.8,8,15.8
		c0,2.7-0.2,5.2-0.8,7.5c2.6,0.8,5.1,2,7.4,3.5c5.3,3.5,8,8.8,8,15.8C879.1,823.5,875.7,830.8,868.8,835.7z M884.1,708.2
		c-2.4,4.1-6.3,7.3-11.7,9.6c-5.3,2.3-12.1,3.4-20.4,3.4h-54.9l5.4-26.8h-20l4.6-23.3l4.9-24.4h52.7c8.8,0,15.8,1.6,20.8,4.8
		c5,3.2,7.5,8.2,7.5,14.9c0,3.1-0.3,6-1.1,8.6c3.1,0.8,5.8,1.9,8.1,3.4c5,3.2,7.5,8.1,7.5,14.9C887.8,699.1,886.6,704,884.1,708.2z"
		/>
	<path class="st1" d="M873.2,666.4c0,3.1-0.3,6-1.1,8.6c-3.7-1-7.9-1.4-12.7-1.4h-52.6l-4.2,20.8h-20l4.6-23.3l4.9-24.4h52.7
		c8.8,0,15.8,1.6,20.8,4.8C870.7,654.7,873.2,659.7,873.2,666.4z"/>
	<path class="st2" d="M990.9,891.7l64.1-320.5H1163l-64.1,320.5H990.9z"/>
	<path class="st2" d="M1151.1,891.7l64.1-320.5h106.2l-64.1,320.5H1151.1z M1261.5,825.8l16-121.3l142.9-133.2h124.1l-164.4,149.3
		l-73.3,63.2L1261.5,825.8z M1367.7,891.7l-77.4-124.5l80.1-72.3l117.7,196.9H1367.7z"/>
	<path class="st2" d="M1623.7,810.2h160.7l-16.5,81.5h-266.5l64.1-320.5H1826l-16.5,81.5h-154.3L1623.7,810.2z M1640.6,690.2h142.9
		l-15.6,77.8H1625L1640.6,690.2z"/>
	<path class="st0" d="M864.1,514.7l-3.7,18.5c-10.3,11-22.2,23.9-35.4,38H701l-34,170c-12,13-23.4,25.3-33.9,36.5l6.1-30.5h-17.1
		l0.4-16.5v0l2.1-10.4h-1.8l1.3-58.7l-60.6,58.7l-27.7,26.9l-42,40.7l-10.6,10.2l-40,38.8l-7.7,7.5l-48.7,47.2L359,918.6l-79,76.5
		l58.6-76.5l20.5-26.9L401,837l20.5-26.8l11.7-15.3l9.8-12.7l0,0l43.1-56.3l4.2-5.4l137-178.9l20.7-27v0l51.2-66.8l0,0l40.6-53.1
		l2.6-3.3l-1.2,101l-0.4,33.5l-0.5,42.8l122.3-145.5l-18.3,91.6H864.1z"/>
	<linearGradient id="SVGID_1_" gradientUnits="userSpaceOnUse" x1="622.4725" y1="725.6291" x2="624.5565" y2="725.6291">
		<stop  offset="0" style="stop-color:#F76444"/>
		<stop  offset="0.5" style="stop-color:#ED2825"/>
		<stop  offset="1" style="stop-color:#F76444"/>
	</linearGradient>
	<polygon class="st3" points="624.6,720.4 622.5,730.8 622.7,720.4 	"/>
	<linearGradient id="SVGID_2_" gradientUnits="userSpaceOnUse" x1="620.4211" y1="786.2212" x2="639.1643" y2="786.2212">
		<stop  offset="0" style="stop-color:#F76444"/>
		<stop  offset="0.5" style="stop-color:#ED2825"/>
		<stop  offset="1" style="stop-color:#F76444"/>
	</linearGradient>
	<polygon class="st4" points="639.2,747.3 623.6,825.1 620.4,825.1 622.1,747.3 	"/>
	<path class="st0" d="M1212.4,348.5l-23.4,31l-14,18.5l-23.3,30.9l-4,5.3l-26.3,34.9l-34.5,45.7l-20.2,26.8l-74.5,98.8l-6.5,8.6
		l-42.6,56.5l-0.5-86.3l-0.1-14.4l-0.1-21.7l-0.2-41.6h24.6l63.7-318.4l11-13.1l12.9,54.8v0.1l10.8,45.9v0l14.3,61l19.9-16.2
		l3.9-3.2l49.5-40.2l-8,40.2h44.3C1198,352.6,1205.8,351.3,1212.4,348.5z"/>
	<path class="st1" d="M1340.2,396.9c13.3-20.2,19.9-43.7,19.9-70.5c0-33.3-11.6-59.1-34.8-77.6c-7.7-6.1-16.4-11.2-26.1-15.2
		L1240,312c7.1,5,10.7,13.3,10.7,24.9c0,13.4-4.1,23.9-12.4,31.4c-8.2,7.5-19.9,11.2-34.8,11.2h-44.3l1.1-5.3l4.3-21.5h-20l8-40.2
		l42.9-34.9l66.5-54.1c-10.9-1.6-22.6-2.4-35.1-2.4h-143.8l-62,309.9l-2.1,10.6H1127l16.1-80.6h26.3l45.5,80.6h112.2l-53.4-93.2
		c3.5-1.3,6.8-2.7,10.1-4.3C1308.1,432.7,1326.9,417,1340.2,396.9z"/>
	<path class="st2" d="M1269.3,417.2c-3.3,1.5-6.7,3-10.1,4.3l53.4,93.2h-112.2l-45.5-80.6h-26.3l-7,34.9l-9.1,45.7h-108.1
		l49.9-249.7v-0.1l14.2-70.7h143.8c27.8,0,51.5,4,71,12l-21.3,17.3l-66.5,54.1h-35.9l-6.9,34.9l-8,40.2h44.2c9.1,0,17-1.4,23.6-4.2
		c4.3-1.8,8-4.1,11.2-7.1c6.5-6,10.5-13.8,11.9-23.5l4.4-5.9l59.2-78.5l9.7-12.9c0.6,0.4,1.2,0.8,1.8,1.3
		c23.2,18.5,34.8,44.3,34.8,77.6c0,26.9-6.6,50.4-19.9,70.5C1312.3,390.2,1293.5,405.9,1269.3,417.2z"/>
	<polygon class="st1" points="639.2,747.3 623.6,825.1 486.2,825.1 491.6,798.3 493.7,788 535.7,747.3 622.1,747.3 	"/>
	<path class="st2" d="M563.4,720.4l-27.7,26.9l-42,40.7l-10.6,10.2H609l10.2-51l3.3-16.5v0l2.1-10.4H563.4z M487.2,720.4l-1.1,5.4
		l4.2-5.4H487.2z"/>
	<polygon class="st1" points="482.1,679.5 498.6,598 238.1,598 174,918.5 440.4,918.5 456.9,837 296.2,837 304.7,794.9 440.4,794.9 
		456,717.1 320.3,717.1 327.8,679.5 	"/>
	<path class="st2" d="M281.6,810.2h160.7l-16.5,81.5H159.3l64.1-320.5H484l-16.5,81.5H313.2L281.6,810.2z M298.5,690.2h142.9
		l-15.6,77.8H283L298.5,690.2z"/>
	<path class="st5" d="M1377.6,129.5l-68.7,91.1l-9.8,12.9L1240,312l-4.4,5.9l-23.1,30.6c-6.6,2.8-14.5,4.2-23.6,4.2h-12.4
		L1377.6,129.5z"/>
	<polygon class="st5" points="1066.9,541.5 992.3,640.4 985.8,649 943.2,705.6 942.7,619.2 1021.1,530.9 1019,541.5 	"/>
	<path class="st6" d="M897.3,541.5l-25.2,29.7c-0.4,0-0.8,0-1.2,0H825c13.1-14.1,25.1-27,35.4-38l-1.7,8.3H897.3z"/>
	<path class="st6" d="M667,741.2l-18.7,93.4l-28.8,33.9l0.9-43.5h3.2l9.5-47.4C643.5,766.5,655,754.2,667,741.2z"/>
	<polygon class="st6" points="280,995.1 622.5,613.2 624,661.8 	"/>
</g>
</svg>
